# xmcd
#
# Track frame offsets: 
#        182
#        14392
#        27045
#        48170
#        61245
#        77907
#        92847
#        107272
#        123695
#        140170
#        152997
#        166177
#        179260
#        198160
#        212597
#        235547
#
# Disc length: 3306 seconds
#
# Revision: 1
# Processed by: cddbd v1.5.2PL0 Copyright (c) Steve Scherf et al.
# Submitted via: ExactAudioCopyFreeDBPlugin 1.0
#
DISCID=ca0ce810
DTITLE=Acker Bilk - Love Songs
DYEAR=1900
DGENRE=Instrumental Pop
TTITLE0=Evergreen
TTITLE1=What Are You Doing The Rest Of Your Life
TTITLE2=Without You
TTITLE3=The Shepherd's Song
TTITLE4=Someone To Warch Over Me
TTITLE5=Sailing
TTITLE6=When I Need You
TTITLE7=Together Wa Are Beautiful
TTITLE8=Miss You Nights
TTITLE9=She
TTITLE10=Song For Guy
TTITLE11=Amazing Grace
TTITLE12=Misty
TTITLE13=Close To You
TTITLE14=Aranjuez Mon Amour
TTITLE15=Love Letters
EXTD=
EXTT0=
EXTT1=
EXTT2=
EXTT3=
EXTT4=
EXTT5=
EXTT6=
EXTT7=
EXTT8=
EXTT9=
EXTT10=
EXTT11=
EXTT12=
EXTT13=
EXTT14=
EXTT15=
PLAYORDER=
